HIERARCHY
ROOT Hips
{
	OFFSET 62.890800 8.863803 43.568401
	CHANNELS 6 Xposition Yposition Zposition Zrotation Xrotation Yrotation
	JOINT Chest
	{
		OFFSET -0.160400 1.630001 7.806301
		CHANNELS 6 Xposition Yposition Zposition Zrotation Xrotation Yrotation
		JOINT Chest2
		{
			OFFSET 0.000000 0.000000 3.197998
			CHANNELS 6 Xposition Yposition Zposition Zrotation Xrotation Yrotation
			JOINT Neck
			{
				OFFSET 0.000000 0.000001 7.440701
				CHANNELS 6 Xposition Yposition Zposition Zrotation Xrotation Yrotation
				JOINT Head
				{
					OFFSET 0.000000 0.000000 2.173901
					CHANNELS 6 Xposition Yposition Zposition Zrotation Xrotation Yrotation
					End Site
					{
						OFFSET 0.000000 0.000001 10.420303
					}
				}
			}
			JOINT LeftCollar
			{
				OFFSET 2.426399 -1.880099 4.759399
				CHANNELS 6 Xposition Yposition Zposition Zrotation Xrotation Yrotation
				JOINT LeftShoulder
				{
					OFFSET 4.420197 0.000000 0.000000
					CHANNELS 6 Xposition Yposition Zposition Zrotation Xrotation Yrotation
					JOINT LeftElbow
					{
						OFFSET 0.000000 -0.000001 -10.347099
						CHANNELS 6 Xposition Yposition Zposition Zrotation Xrotation Yrotation
						JOINT LeftWrist
						{
							OFFSET 0.000000 -0.000001 -12.496300
							CHANNELS 6 Xposition Yposition Zposition Zrotation Xrotation Yrotation
							End Site
							{
								OFFSET 0.000000 0.000000 -2.173901
							}
						}
					}
				}
			}
			JOINT RightCollar
			{
				OFFSET -2.781502 -1.903799 5.072601
				CHANNELS 6 Xposition Yposition Zposition Zrotation Xrotation Yrotation
				JOINT RightShoulder
				{
					OFFSET -4.012100 0.000000 0.000000
					CHANNELS 6 Xposition Yposition Zposition Zrotation Xrotation Yrotation
					JOINT RightElbow
					{
						OFFSET 0.000000 -0.000001 -10.346600
						CHANNELS 6 Xposition Yposition Zposition Zrotation Xrotation Yrotation
						JOINT RightWrist
						{
							OFFSET 0.000000 -0.000001 -12.562599
							CHANNELS 6 Xposition Yposition Zposition Zrotation Xrotation Yrotation
							End Site
							{
								OFFSET 0.000000 0.000000 -2.173901
							}
						}
					}
				}
			}
		}
	}
	JOINT LeftHip
	{
		OFFSET 2.047997 -0.047200 -2.693199
		CHANNELS 6 Xposition Yposition Zposition Zrotation Xrotation Yrotation
		JOINT LeftKnee
		{
			OFFSET 0.000000 -0.000001 -18.824400
			CHANNELS 6 Xposition Yposition Zposition Zrotation Xrotation Yrotation
			JOINT LeftAnkle
			{
				OFFSET 0.000000 -0.000002 -19.078199
				CHANNELS 6 Xposition Yposition Zposition Zrotation Xrotation Yrotation
				End Site
				{
					OFFSET 0.000000 -9.342100 0.000001
				}
			}
		}
	}
	JOINT RightHip
	{
		OFFSET -2.129898 -0.022300 -2.538300
		CHANNELS 6 Xposition Yposition Zposition Zrotation Xrotation Yrotation
		JOINT RightKnee
		{
			OFFSET 0.000000 -0.000001 -18.644600
			CHANNELS 6 Xposition Yposition Zposition Zrotation Xrotation Yrotation
			JOINT RightAnkle
			{
				OFFSET 0.000000 -0.000002 -18.801399
				CHANNELS 6 Xposition Yposition Zposition Zrotation Xrotation Yrotation
				End Site
				{
					OFFSET 0.000000 -8.914600 0.000001
				}
			}
		}
	}
}
MOTION
Frames: 4
Frame Time: 0.041667
45.164696 34.872093 19.742075 -83.324490 -4.855752 -14.517953 -0.160397 1.629995 7.806309 -18.735690 5.379186 12.820387 0.000010 0.000000 3.198002 2.612855 -9.902754 0.282314 -0.000001 0.000007 7.440694 42.873422 -14.188191 -9.858566 0.000005 -0.000004 2.173913 6.391855 -3.498646 7.901344 2.426408 -1.880096 4.759391 -178.291379 175.813044 -170.467438 4.420195 0.000003 0.000004 -6.297980 36.259982 -83.386433 -0.000009 -0.000001 -10.347088 530.560134 -181.636109 -179.241758 0.000007 -0.000011 -12.496298 63.287679 7.672878 347.774764 -2.781498 -1.903792 5.072603 -190.473895 -183.633051 182.357103 -4.012100 -0.000004 0.000002 12.043761 -26.335077 486.624750 -0.000000 -0.000011 -10.346600 -79.819647 -1.878627 7.542378 -0.000005 -0.000002 -12.562600 1303.831312 -176.199756 122.470059 2.047997 -0.047201 -2.693201 518.104601 5.162375 90.935848 -0.000008 0.000005 -18.824398 -16.148785 196.062110 -63.684923 0.000007 -0.000002 -19.078203 -311.129679 -8.225377 55.622288 -2.129896 -0.022301 -2.538300 -485.219480 -34.544515 -63.843438 0.000001 0.000003 -18.644596 382.024392 175.715140 26.164370 -0.000002 -0.000003 -18.801399 -36.757790 -0.461735 -60.100296
45.164200 34.953892 19.814779 -83.392368 -4.715432 -14.522992 -0.160399 1.630002 7.806310 -18.711990 5.536165 12.806086 0.000005 0.000005 3.198001 2.539615 -9.922216 0.281212 0.000000 -0.000002 7.440703 42.742535 -14.204808 -9.958391 -0.000003 0.000000 2.173905 6.065924 -3.530303 8.046641 2.426403 -1.880099 4.759401 -178.235658 176.069368 -170.585709 4.420194 0.000003 0.000001 -6.200127 36.447621 -83.240082 -0.000008 0.000003 -10.347097 530.337032 -181.840249 -179.266812 -0.000001 0.000007 -12.496296 63.442581 7.772266 347.989122 -2.781497 -1.903797 5.072603 -190.299602 -183.428063 182.546750 -4.012101 -0.000001 -0.000009 12.305223 -26.373432 487.200453 0.000001 0.000002 -10.346601 -79.667798 -1.774927 7.795138 -0.000001 0.000000 -12.562607 1303.871966 -176.231038 122.607100 2.047996 -0.047199 -2.693195 517.890843 5.043210 90.753270 0.000003 -0.000004 -18.824402 -16.173348 196.265390 -63.982241 0.000006 0.000001 -19.078197 -310.523431 -8.566289 55.983417 -2.129892 -0.022300 -2.538295 -484.549302 -34.730600 -63.467866 -0.000004 0.000004 -18.644594 381.655753 175.436947 26.196661 0.000003 0.000002 -18.801397 -36.409457 -0.627999 -60.256018
45.172295 35.044483 19.884277 -83.447945 -4.548310 -14.550425 -0.160399 1.629998 7.806305 -18.700001 5.739860 12.774123 0.000011 0.000000 3.198005 2.453798 -9.927966 0.279469 -0.000006 0.000000 7.440699 42.624520 -14.217711 -9.979521 -0.000000 0.000002 2.173906 5.700837 -3.595591 8.185924 2.426400 -1.880100 4.759392 -178.086705 176.413145 -170.718338 4.420195 0.000003 0.000000 -6.193606 36.678655 -83.035436 0.000004 -0.000002 -10.347095 530.079889 -182.034268 -179.280431 -0.000009 -0.000006 -12.496298 63.651831 7.862312 348.174576 -2.781499 -1.903795 5.072600 -190.192833 -183.130171 182.864409 -4.012097 -0.000004 0.000005 12.734750 -26.562404 487.710368 0.000005 -0.000005 -10.346595 -79.982130 -1.705695 8.059849 0.000001 -0.000003 -12.562600 1304.561979 -176.232937 122.792608 2.047993 -0.047203 -2.693196 517.586271 4.865133 90.589748 -0.000001 0.000001 -18.824402 -16.150399 196.375411 -64.278644 -0.000001 0.000001 -19.078199 -310.067147 -8.764693 56.271917 -2.129896 -0.022299 -2.538303 -483.815193 -35.000519 -63.098544 -0.000003 0.000005 -18.644592 381.187175 175.141131 26.200049 0.000003 -0.000002 -18.801395 -36.045138 -0.662068 -60.319450
45.187401 35.145592 19.951975 -83.473429 -4.386482 -14.605533 -0.160408 1.629996 7.806305 -18.665625 6.019795 12.752140 0.000008 0.000007 3.198005 2.347746 -9.951108 0.277684 -0.000002 -0.000001 7.440696 42.432287 -14.217265 -9.955107 -0.000001 -0.000002 2.173905 5.391588 -3.715635 8.254886 2.426403 -1.880093 4.759389 -177.985427 176.811782 -170.764114 4.420199 0.000003 0.000003 -6.121874 37.032278 -82.906291 0.000001 0.000005 -10.347093 529.917823 -182.222426 -179.291673 -0.000000 -0.000004 -12.496299 63.891331 7.972103 348.349401 -2.781503 -1.903793 5.072604 -190.107360 -182.774838 183.155867 -4.012092 -0.000000 0.000001 13.266498 -26.861374 488.307654 0.000002 -0.000009 -10.346596 -80.389530 -1.634587 8.326139 -0.000001 -0.000009 -12.562591 1305.503124 -176.218771 123.008019 2.047989 -0.047196 -2.693200 517.178700 4.610138 90.410961 0.000002 -0.000004 -18.824398 -16.087423 196.403934 -64.543150 0.000008 -0.000005 -19.078197 -309.628021 -8.962082 56.465625 -2.129896 -0.022301 -2.538309 -483.140698 -35.261357 -62.763346 -0.000001 0.000009 -18.644598 380.733541 174.825003 26.195270 -0.000006 0.000001 -18.801401 -35.829513 -0.784167 -60.388735
